<svg width="44" height="26" viewBox="0 0 44 26" fill="none" xmlns="http://www.w3.org/2000/svg">
<path d="M28.2597 24.2958C30.5762 26.6114 34.366 26.5567 36.613 24.1331C38.6563 21.9293 38.6563 18.4689 36.613 16.2651C34.366 13.8414 30.5762 13.7868 28.2597 16.1024L24.4103 19.9501C24.2724 20.088 24.2724 20.3102 24.4103 20.448L28.2597 24.2958Z" fill="#D0C5FB"/>
<path d="M25.887 15.3125C28.2036 12.9969 28.1489 9.20873 25.7243 6.96266C23.5195 4.92021 20.0577 4.92021 17.8529 6.96266C15.4283 9.20873 15.3736 12.9969 17.6902 15.3125L21.5396 19.1602C21.6774 19.298 21.8998 19.298 22.0377 19.1602L25.887 15.3125Z" fill="#EFE669"/>
<path d="M15.3192 24.2958C13.0026 26.6114 9.21284 26.5567 6.96583 24.1331C4.92252 21.9293 4.92252 18.4689 6.96583 16.2651C9.21284 13.8414 13.0026 13.7868 15.3192 16.1024L19.1685 19.9501C19.3064 20.088 19.3064 20.3102 19.1685 20.448L15.3192 24.2958Z" fill="#00D1C6"/>
<path d="M21.7895 3.84154C22.8508 3.84154 23.7111 2.98158 23.7111 1.92077C23.7111 0.859957 22.8508 0 21.7895 0C20.7282 0 19.8679 0.859957 19.8679 1.92077C19.8679 2.98158 20.7282 3.84154 21.7895 3.84154Z" fill="#EFE669"/>
<path d="M41.5012 22.119C42.5624 22.119 43.4227 21.259 43.4227 20.1982C43.4227 19.1374 42.5624 18.2775 41.5012 18.2775C40.4399 18.2775 39.5796 19.1374 39.5796 20.1982C39.5796 21.259 40.4399 22.119 41.5012 22.119Z" fill="#D0C5FB"/>
<path d="M1.92158 22.119C2.98283 22.119 3.84315 21.259 3.84315 20.1982C3.84315 19.1374 2.98283 18.2775 1.92158 18.2775C0.860319 18.2775 0 19.1374 0 20.1982C0 21.259 0.860319 22.119 1.92158 22.119Z" fill="#00D1C6"/>
</svg>
