<svg width="54" height="16" viewBox="0 0 54 16" fill="none" xmlns="http://www.w3.org/2000/svg">
<path d="M9.75224 14.2624C9.75224 14.6051 9.61898 14.8933 9.35124 15.1258C9.08351 15.3583 8.80003 15.4746 8.49838 15.4746C8.14222 15.4746 7.84057 15.3377 7.59464 15.064L3.89487 11.16L2.88815 12.0839V14.2418C2.88815 14.5978 2.77185 14.8957 2.53926 15.1355C2.30666 15.3753 2.01106 15.4951 1.6549 15.4951C1.29873 15.4951 1.00435 15.3753 0.77175 15.1355C0.53794 14.8957 0.422852 14.5978 0.422852 14.2418V1.54509C0.422852 1.18907 0.539151 0.89118 0.77175 0.651413C1.00435 0.411647 1.29873 0.291763 1.6549 0.291763C2.01106 0.291763 2.30545 0.411647 2.53926 0.651413C2.77185 0.89118 2.88815 1.18907 2.88815 1.54509V9.14738L7.28693 4.89456C7.54739 4.6342 7.84905 4.50463 8.19189 4.50463C8.49354 4.50463 8.76369 4.63178 9.00356 4.88487C9.24342 5.13795 9.36336 5.39588 9.36336 5.65503C9.36336 5.98319 9.1986 6.29198 8.8703 6.57898L5.76656 9.43437L9.36336 13.3385C9.62261 13.6121 9.75224 13.9209 9.75224 14.2624Z" fill="#2E3333"/>
<path d="M20.9354 10.5434C20.6882 10.7493 20.4011 10.8522 20.0716 10.8522H13.2887C13.4535 11.6599 13.8302 12.2944 14.419 12.7522C15.0077 13.2111 15.6728 13.44 16.413 13.44C16.9751 13.44 17.4125 13.3891 17.7287 13.2862C18.0436 13.1833 18.2944 13.0743 18.4785 12.958C18.6639 12.8418 18.7899 12.7631 18.8589 12.7219C19.1061 12.5984 19.3387 12.5366 19.558 12.5366C19.8463 12.5366 20.0922 12.6396 20.2981 12.8454C20.5041 13.0513 20.6071 13.2911 20.6071 13.5647C20.6071 13.9341 20.4144 14.2707 20.0316 14.571C19.6476 14.8859 19.1339 15.1535 18.4895 15.3727C17.845 15.5918 17.1944 15.7008 16.5366 15.7008C15.3857 15.7008 14.3814 15.4611 13.5249 14.9815C12.6684 14.502 12.007 13.8408 11.5418 12.9992C11.0754 12.1564 10.8428 11.2082 10.8428 10.1535C10.8428 8.97526 11.0899 7.94111 11.583 7.05107C12.076 6.16103 12.7266 5.47927 13.5358 5.007C14.3439 4.53473 15.2076 4.2986 16.1259 4.2986C17.0309 4.2986 17.8837 4.54563 18.6845 5.03849C19.4865 5.53134 20.1261 6.19615 20.6071 7.0317C21.0868 7.86724 21.3267 8.77182 21.3267 9.7442C21.3109 10.0712 21.1813 10.3388 20.9354 10.5434ZM13.3093 8.79725H18.6942V8.65315C18.6397 8.07795 18.3586 7.5851 17.851 7.17338C17.3434 6.76287 16.768 6.557 16.1247 6.557C14.5353 6.55822 13.5964 7.30416 13.3093 8.79725Z" fill="#2E3333"/>
<path d="M25.6926 15.1357C25.4528 15.3755 25.1548 15.4954 24.7986 15.4954C24.4558 15.4954 24.1686 15.3755 23.936 15.1357C23.7022 14.8959 23.5859 14.598 23.5859 14.242V1.5453C23.5859 1.18929 23.7059 0.891393 23.9457 0.651627C24.1856 0.41186 24.4836 0.291977 24.8398 0.291977C25.1826 0.291977 25.4697 0.41186 25.7023 0.651627C25.9362 0.891393 26.0512 1.18929 26.0512 1.5453V14.2432C26.0524 14.5993 25.9325 14.8971 25.6926 15.1357Z" fill="#2E3333"/>
<path d="M29.012 2.94146C28.8205 2.7913 28.7236 2.52368 28.7236 2.13981V1.74868C28.7236 1.36602 28.8266 1.0984 29.0326 0.947034C29.2385 0.796877 29.5668 0.720589 30.0187 0.720589C30.4984 0.720589 30.834 0.795666 31.0266 0.947034C31.218 1.0984 31.3149 1.36481 31.3149 1.74868V2.13981C31.3149 2.537 31.2156 2.80704 31.0169 2.95114C30.8182 3.09524 30.479 3.16669 29.9993 3.16669C29.5329 3.1679 29.2046 3.09282 29.012 2.94146ZM30.903 15.1356C30.6704 15.3754 30.3748 15.4953 30.0187 15.4953C29.6625 15.4953 29.3681 15.3754 29.1355 15.1356C28.9017 14.8959 28.7866 14.598 28.7866 14.242V5.7569C28.7866 5.40088 28.9029 5.10299 29.1355 4.86322C29.3681 4.62345 29.6625 4.50357 30.0187 4.50357C30.3748 4.50357 30.6692 4.62345 30.903 4.86322C31.1356 5.10299 31.2519 5.40088 31.2519 5.7569V14.242C31.2531 14.5992 31.1368 14.8971 30.903 15.1356Z" fill="#2E3333"/>
<path d="M41.3859 4.84226C42.0982 5.20555 42.4544 5.6875 42.4544 6.29055C42.4544 6.59207 42.3648 6.85606 42.1867 7.08129C42.0086 7.30774 41.776 7.42036 41.4877 7.42036C41.2684 7.42036 41.0903 7.38888 40.9534 7.32833C40.8165 7.26657 40.6833 7.18422 40.5524 7.08129C40.4216 6.97836 40.2956 6.8936 40.172 6.82458C40.0351 6.75555 39.8328 6.695 39.5663 6.6393C39.2986 6.58481 39.0829 6.55695 38.9182 6.55695C37.8909 6.55695 37.0853 6.87543 36.5025 7.51239C35.9198 8.14935 35.6291 8.98126 35.6291 10.0081C35.6291 10.9938 35.9235 11.8124 36.5135 12.4639C37.1022 13.1154 37.8557 13.44 38.774 13.44C39.4452 13.44 39.9455 13.3576 40.2738 13.1929C40.3562 13.1517 40.4688 13.0803 40.613 12.9774C40.7572 12.8744 40.8904 12.7957 41.014 12.7412C41.1376 12.6867 41.2878 12.6589 41.4659 12.6589C41.8087 12.6589 42.0789 12.7691 42.2775 12.9871C42.4762 13.2062 42.5755 13.4872 42.5755 13.8299C42.5755 14.158 42.3841 14.4668 42.0001 14.755C41.6161 15.0432 41.1085 15.2721 40.4785 15.4428C39.8486 15.6136 39.1762 15.6996 38.4639 15.6996C37.4087 15.6996 36.4807 15.4525 35.6788 14.9597C34.8768 14.4668 34.2565 13.7851 33.818 12.9156C33.3794 12.0462 33.1602 11.0762 33.1602 10.0081C33.1602 8.89892 33.3891 7.912 33.8483 7.04981C34.3074 6.18641 34.9483 5.51191 35.7696 5.02633C36.5922 4.54074 37.5238 4.29734 38.5656 4.29734C39.7347 4.29734 40.6736 4.47898 41.3859 4.84226Z" fill="#2E3333"/>
<path d="M53.9041 14.2626C53.9041 14.6053 53.7708 14.8935 53.5031 15.126C53.2353 15.3585 52.9519 15.4748 52.6502 15.4748C52.2941 15.4748 51.9924 15.3379 51.7453 15.0643L48.0455 11.1602L47.0376 12.0841V14.242C47.0376 14.598 46.9213 14.8959 46.6887 15.1357C46.4561 15.3755 46.1605 15.4954 45.8055 15.4954C45.4494 15.4954 45.1538 15.3755 44.9212 15.1357C44.6874 14.8959 44.5723 14.598 44.5723 14.242V1.5453C44.5723 1.18929 44.6886 0.891393 44.9212 0.651627C45.1538 0.41186 45.4481 0.291977 45.8055 0.291977C46.1617 0.291977 46.4561 0.41186 46.6887 0.651627C46.9213 0.891393 47.0376 1.18929 47.0376 1.5453V9.14759L51.4363 4.89477C51.6968 4.63442 51.9985 4.50484 52.3413 4.50484C52.643 4.50484 52.9131 4.63199 53.153 4.88508C53.3928 5.13816 53.5128 5.3961 53.5128 5.65524C53.5128 5.9834 53.348 6.29219 53.0197 6.57919L49.916 9.43459L53.5128 13.3387C53.7744 13.6123 53.9041 13.9211 53.9041 14.2626Z" fill="#2E3333"/>
</svg>
