<svg width="20" height="20" viewBox="0 0 20 20" fill="none" xmlns="http://www.w3.org/2000/svg">
<path d="M7 18.9926H5C2.79086 18.9926 1 17.2017 1 14.9926V8.70017C1 7.30145 1.73061 6.00433 2.92679 5.27938L7.92679 2.24907C9.20105 1.4768 10.7989 1.47679 12.0732 2.24907L17.0732 5.27938C18.2694 6.00433 19 7.30145 19 8.70017V14.9926C19 17.2017 17.2091 18.9926 15 18.9926H13M7 18.9926V14.9926C7 13.3357 8.34315 11.9926 10 11.9926V11.9926C11.6569 11.9926 13 13.3357 13 14.9926V18.9926M7 18.9926H13" stroke="#2E3333" stroke-width="1.5" stroke-linecap="round" stroke-linejoin="round"/>
</svg>
