<svg width="24" height="24" viewBox="0 0 24 24" fill="none" xmlns="http://www.w3.org/2000/svg">
<path d="M7 17.9926V16.9926C7 14.2312 9.23858 11.9926 12 11.9926V11.9926C14.7614 11.9926 17 14.2312 17 16.9926V17.9926" stroke="#2E3333" stroke-width="1.5" stroke-linecap="round" stroke-linejoin="round"/>
<path d="M1 17.9926V16.9926C1 15.3357 2.34315 13.9926 4 13.9926V13.9926" stroke="#2E3333" stroke-width="1.5" stroke-linecap="round" stroke-linejoin="round"/>
<path d="M23 17.9926V16.9926C23 15.3357 21.6569 13.9926 20 13.9926V13.9926" stroke="#2E3333" stroke-width="1.5" stroke-linecap="round" stroke-linejoin="round"/>
<path d="M12 11.9926C13.6569 11.9926 15 10.6494 15 8.99258C15 7.33573 13.6569 5.99258 12 5.99258C10.3431 5.99258 9 7.33573 9 8.99258C9 10.6494 10.3431 11.9926 12 11.9926Z" stroke="#2E3333" stroke-width="1.5" stroke-linecap="round" stroke-linejoin="round"/>
<path d="M4 13.9926C5.10457 13.9926 6 13.0972 6 11.9926C6 10.888 5.10457 9.99258 4 9.99258C2.89543 9.99258 2 10.888 2 11.9926C2 13.0972 2.89543 13.9926 4 13.9926Z" stroke="#2E3333" stroke-width="1.5" stroke-linecap="round" stroke-linejoin="round"/>
<path d="M20 13.9926C21.1046 13.9926 22 13.0972 22 11.9926C22 10.888 21.1046 9.99258 20 9.99258C18.8954 9.99258 18 10.888 18 11.9926C18 13.0972 18.8954 13.9926 20 13.9926Z" stroke="#2E3333" stroke-width="1.5" stroke-linecap="round" stroke-linejoin="round"/>
</svg>
