<svg width="43" height="40" viewBox="0 0 43 40" fill="none" xmlns="http://www.w3.org/2000/svg">
<g clip-path="url(#clip0_1_3030)">
<path d="M26.7195 19L9.89612 16V38.167C9.89612 39.1793 10.7082 40 11.7101 40H40.7393C41.7411 40 42.5532 39.1793 42.5532 38.167V30L26.7195 19Z" fill="#185C37"/>
<path d="M26.7195 0H11.7101C10.7082 0 9.89612 0.820657 9.89612 1.833V10L26.7195 20L35.626 23L42.5532 20V10L26.7195 0Z" fill="#21A366"/>
<path d="M9.89612 10H26.7195V20H9.89612V10Z" fill="#107C41"/>
<path opacity="0.1" d="M21.9367 8H9.89612V33H21.9367C22.9372 32.9967 23.7474 32.178 23.7506 31.167V9.833C23.7474 8.82203 22.9372 8.00329 21.9367 8Z" fill="black"/>
<path opacity="0.2" d="M20.9471 9H9.89612V34H20.9471C21.9475 33.9967 22.7578 33.178 22.761 32.167V10.833C22.7578 9.82203 21.9475 9.00329 20.9471 9Z" fill="black"/>
<path opacity="0.2" d="M20.9471 9H9.89612V32H20.9471C21.9475 31.9967 22.7578 31.178 22.761 30.167V10.833C22.7578 9.82203 21.9475 9.00329 20.9471 9Z" fill="black"/>
<path opacity="0.2" d="M19.9575 9H9.89612V32H19.9575C20.9579 31.9967 21.7682 31.178 21.7714 30.167V10.833C21.7682 9.82203 20.9579 9.00329 19.9575 9Z" fill="black"/>
<path d="M1.81395 9H19.9574C20.9593 9 21.7714 9.82066 21.7714 10.833V29.167C21.7714 30.1793 20.9593 31 19.9574 31H1.81395C0.81213 31 0 30.1793 0 29.167V10.833C0 9.82066 0.81213 9 1.81395 9Z" fill="url(#paint0_linear_1_3030)"/>
<path d="M5.61804 25.958L9.43398 19.983L5.93769 14.041H8.75015L10.6581 17.841C10.8343 18.202 10.955 18.47 11.0203 18.647H11.0451C11.1704 18.359 11.3024 18.0793 11.4409 17.808L13.4805 14.043H16.0624L12.477 19.95L16.1534 25.958H13.4063L11.2024 21.787C11.0986 21.6096 11.0105 21.4232 10.9392 21.23H10.9065C10.842 21.4192 10.7563 21.6004 10.6512 21.77L8.38204 25.958H5.61804Z" fill="white"/>
<path d="M40.7393 0H26.7195V10H42.5532V1.833C42.5532 0.820657 41.7411 0 40.7393 0Z" fill="#33C481"/>
<path d="M26.7195 20H42.5532V30H26.7195V20Z" fill="#107C41"/>
</g>
<defs>
<linearGradient id="paint0_linear_1_3030" x1="3.78213" y1="7.56773" x2="18.213" y2="32.3017" gradientUnits="userSpaceOnUse">
<stop stop-color="#18884F"/>
<stop offset="0.5" stop-color="#117E43"/>
<stop offset="1" stop-color="#0B6631"/>
</linearGradient>
<clipPath id="clip0_1_3030">
<rect width="42.5532" height="40" fill="white"/>
</clipPath>
</defs>
</svg>
