<svg width="24" height="24" viewBox="0 0 24 24" fill="none" xmlns="http://www.w3.org/2000/svg">
<path d="M7 9.00258L7.01 8.99147" stroke="#2E3333" stroke-width="1.5" stroke-linecap="round" stroke-linejoin="round"/>
<path d="M11 9.00258L11.01 8.99147" stroke="#2E3333" stroke-width="1.5" stroke-linecap="round" stroke-linejoin="round"/>
<path d="M7 13.0026L7.01 12.9915" stroke="#2E3333" stroke-width="1.5" stroke-linecap="round" stroke-linejoin="round"/>
<path d="M11 13.0026L11.01 12.9915" stroke="#2E3333" stroke-width="1.5" stroke-linecap="round" stroke-linejoin="round"/>
<path d="M7 17.0026L7.01 16.9915" stroke="#2E3333" stroke-width="1.5" stroke-linecap="round" stroke-linejoin="round"/>
<path d="M11 17.0026L11.01 16.9915" stroke="#2E3333" stroke-width="1.5" stroke-linecap="round" stroke-linejoin="round"/>
<path d="M15 20.9926H3.6C3.26863 20.9926 3 20.724 3 20.3926V5.59258C3 5.26121 3.26863 4.99258 3.6 4.99258H9V3.59258C9 3.26121 9.26863 2.99258 9.6 2.99258H14.4C14.7314 2.99258 15 3.26121 15 3.59258V8.99258M15 20.9926H20.4C20.7314 20.9926 21 20.724 21 20.3926V9.59258C21 9.26121 20.7314 8.99258 20.4 8.99258H15M15 20.9926V16.9926M15 8.99258V12.9926M15 12.9926H17M15 12.9926V16.9926M15 16.9926H17" stroke="#2E3333" stroke-width="1.5" stroke-linecap="round" stroke-linejoin="round"/>
</svg>
