<svg width="24" height="24" viewBox="0 0 24 24" fill="none" xmlns="http://www.w3.org/2000/svg">
<path d="M18 12.4926C18.2761 12.4926 18.5 12.2687 18.5 11.9926C18.5 11.7164 18.2761 11.4926 18 11.4926C17.7239 11.4926 17.5 11.7164 17.5 11.9926C17.5 12.2687 17.7239 12.4926 18 12.4926Z" fill="#2E3333" stroke="#2E3333" stroke-width="1.5" stroke-linecap="round" stroke-linejoin="round"/>
<path d="M12 12.4926C12.2761 12.4926 12.5 12.2687 12.5 11.9926C12.5 11.7164 12.2761 11.4926 12 11.4926C11.7239 11.4926 11.5 11.7164 11.5 11.9926C11.5 12.2687 11.7239 12.4926 12 12.4926Z" fill="#2E3333" stroke="#2E3333" stroke-width="1.5" stroke-linecap="round" stroke-linejoin="round"/>
<path d="M6 12.4926C6.27614 12.4926 6.5 12.2687 6.5 11.9926C6.5 11.7164 6.27614 11.4926 6 11.4926C5.72386 11.4926 5.5 11.7164 5.5 11.9926C5.5 12.2687 5.72386 12.4926 6 12.4926Z" fill="#2E3333" stroke="#2E3333" stroke-width="1.5" stroke-linecap="round" stroke-linejoin="round"/>
</svg>
